<svg version="1.1" id="Layer_1" xmlns="http://www.w3.org/2000/svg" xmlns:xlink="http://www.w3.org/1999/xlink" x="0px" y="0px"
	 width="100%" viewBox="0 0 512 512" enable-background="new 0 0 512 512" xml:space="preserve">
<path fill="#000000" opacity="1.000000" stroke="none" 
	d="
M235.000000,0.999999 
	C249.354233,1.000000 263.708466,1.000000 278.691132,1.403420 
	C291.979370,3.768808 304.768005,5.132386 317.270447,7.824902 
	C339.186798,12.544786 359.719788,21.039032 379.486572,31.701464 
	C397.573425,41.457718 414.210510,53.174999 429.233948,67.008217 
	C438.801025,75.817345 447.403473,85.731682 455.963257,95.564117 
	C470.034271,111.727203 480.876221,130.010300 489.851257,149.424850 
	C500.731628,172.961090 508.230530,197.460022 511.036316,223.319138 
	C511.461517,227.237640 512.334290,231.107590 513.000000,235.000000 
	C513.000000,249.354233 513.000000,263.708466 512.596558,278.691162 
	C510.231293,291.979187 508.869720,304.768127 506.175171,317.269745 
	C501.451324,339.186584 492.907349,359.707458 482.287445,379.486389 
	C472.565918,397.592224 460.823181,414.214661 446.988953,429.236816 
	C438.179169,438.803040 428.265930,447.406067 418.433533,455.965485 
	C402.270569,470.035858 383.987671,480.877502 364.573639,489.852325 
	C341.037903,500.732452 316.539398,508.231232 290.680634,511.036377 
	C286.762207,511.461456 282.892334,512.334290 279.000000,513.000000 
	C264.645782,513.000000 250.291550,513.000000 235.308868,512.596558 
	C225.456970,511.120300 216.097977,510.706604 207.037003,508.843506 
	C185.149414,504.342987 164.026169,497.256531 143.944122,487.401245 
	C122.520470,476.887634 102.807373,463.639771 85.213211,447.548920 
	C70.307991,433.917267 56.883163,418.877472 45.465931,402.073181 
	C34.134708,385.395477 24.745579,367.755890 17.494150,348.975861 
	C11.815342,334.268707 7.315243,319.230835 4.932225,303.582550 
	C3.980607,297.333679 2.331565,291.191010 1.000000,285.000000 
	C1.000000,266.645782 1.000000,248.291550 1.386770,229.330872 
	C2.856437,221.518341 3.583507,214.237000 5.088548,207.120178 
	C9.714867,185.243927 16.561024,164.037354 26.575785,144.031052 
	C36.580643,124.044548 48.804985,105.513466 63.652523,88.629532 
	C75.670784,74.962914 88.719376,62.431614 103.171074,51.586304 
	C120.532646,38.557266 139.372635,27.847067 159.633987,19.680151 
	C180.038177,11.455671 200.971634,5.555295 222.833817,2.972195 
	C226.909973,2.490582 230.945648,1.666195 235.000000,0.999999 
M104.981125,76.530235 
	C95.643356,85.859390 85.936516,94.851723 77.048103,104.590981 
	C60.789352,122.406128 48.992691,143.110641 39.367073,165.141144 
	C28.994202,188.881958 23.059830,213.806015 21.216938,239.475220 
	C19.671591,261.000031 20.496626,282.709167 25.154053,303.888672 
	C30.553476,328.442444 39.214722,351.796570 51.820759,373.794800 
	C65.737167,398.079681 83.516609,418.828827 104.524742,437.095306 
	C122.727661,452.922760 143.152405,465.034393 165.180634,474.655975 
	C188.920349,485.025146 213.844223,491.193542 239.525162,492.676819 
	C257.090118,493.691345 275.040771,493.099915 292.431915,490.567871 
	C308.501190,488.228241 324.284424,483.037903 339.785553,477.877380 
	C367.223450,468.742859 391.331879,453.426727 412.887848,434.397156 
	C427.944611,421.105042 441.678314,406.315308 452.765320,389.462677 
	C466.771362,368.173065 478.311676,345.512939 484.483246,320.684113 
	C488.294952,305.349182 491.602448,289.635620 492.618591,273.929199 
	C493.667877,257.711029 492.456940,241.212296 490.744049,224.993729 
	C489.449432,212.735123 486.514740,200.519226 483.064880,188.646072 
	C476.020599,164.402100 464.717712,142.167007 450.230774,121.389679 
	C437.674896,103.381844 422.765503,87.660301 406.032043,73.748238 
	C388.493042,59.166420 368.829712,47.869568 347.773102,38.895500 
	C324.225647,28.859863 299.649200,22.854259 274.296326,21.305050 
	C258.400238,20.333710 242.218613,21.432049 226.358292,23.269432 
	C212.668915,24.855320 199.100281,28.233601 185.752884,31.836763 
	C168.001190,36.628876 151.474518,44.730061 135.817780,54.199345 
	C125.195862,60.623543 115.561829,68.681129 104.981125,76.530235 
z"/>
<path fill="#FFFFFF" opacity="1.000000" stroke="none" 
	d="
M279.468658,513.000000 
	C282.892334,512.334290 286.762207,511.461456 290.680634,511.036377 
	C316.539398,508.231232 341.037903,500.732452 364.573639,489.852325 
	C383.987671,480.877502 402.270569,470.035858 418.433533,455.965485 
	C428.265930,447.406067 438.179169,438.803040 446.988953,429.236816 
	C460.823181,414.214661 472.565918,397.592224 482.287445,379.486389 
	C492.907349,359.707458 501.451324,339.186584 506.175171,317.269745 
	C508.869720,304.768127 510.231293,291.979187 512.596558,279.159821 
	C513.000000,356.927032 513.000000,434.854095 513.000000,513.000000 
	C435.312561,513.000000 357.624939,513.000000 279.468658,513.000000 
z"/>
<path fill="#FFFFFF" opacity="1.000000" stroke="none" 
	d="
M513.000000,234.531342 
	C512.334290,231.107590 511.461517,227.237640 511.036316,223.319138 
	C508.230530,197.460022 500.731628,172.961090 489.851257,149.424850 
	C480.876221,130.010300 470.034271,111.727203 455.963257,95.564117 
	C447.403473,85.731682 438.801025,75.817345 429.233948,67.008217 
	C414.210510,53.174999 397.573425,41.457718 379.486572,31.701464 
	C359.719788,21.039032 339.186798,12.544786 317.270447,7.824902 
	C304.768005,5.132386 291.979370,3.768808 279.159790,1.403420 
	C356.927032,1.000000 434.854095,1.000000 513.000000,1.000000 
	C513.000000,78.687424 513.000000,156.375061 513.000000,234.531342 
z"/>
<path fill="#FFFFFF" opacity="1.000000" stroke="none" 
	d="
M1.000000,285.468658 
	C2.331565,291.191010 3.980607,297.333679 4.932225,303.582550 
	C7.315243,319.230835 11.815342,334.268707 17.494150,348.975861 
	C24.745579,367.755890 34.134708,385.395477 45.465931,402.073181 
	C56.883163,418.877472 70.307991,433.917267 85.213211,447.548920 
	C102.807373,463.639771 122.520470,476.887634 143.944122,487.401245 
	C164.026169,497.256531 185.149414,504.342987 207.037003,508.843506 
	C216.097977,510.706604 225.456970,511.120300 234.840210,512.596558 
	C157.073914,513.000000 79.147827,513.000000 1.000000,513.000000 
	C1.000000,437.312592 1.000000,361.624939 1.000000,285.468658 
z"/>
<path fill="#FFFFFF" opacity="1.000000" stroke="none" 
	d="
M234.531342,0.999999 
	C230.945648,1.666195 226.909973,2.490582 222.833817,2.972195 
	C200.971634,5.555295 180.038177,11.455671 159.633987,19.680151 
	C139.372635,27.847067 120.532646,38.557266 103.171074,51.586304 
	C88.719376,62.431614 75.670784,74.962914 63.652523,88.629532 
	C48.804985,105.513466 36.580643,124.044548 26.575785,144.031052 
	C16.561024,164.037354 9.714867,185.243927 5.088548,207.120178 
	C3.583507,214.237000 2.856437,221.518341 1.386770,228.862213 
	C1.000000,153.072006 1.000000,77.144012 1.000000,1.000000 
	C78.687431,1.000000 156.375061,1.000000 234.531342,0.999999 
z"/>
<path fill="#FFFFFF" opacity="1.000000" stroke="none" 
	d="
M105.233559,76.269234 
	C115.561829,68.681129 125.195862,60.623543 135.817780,54.199345 
	C151.474518,44.730061 168.001190,36.628876 185.752884,31.836763 
	C199.100281,28.233601 212.668915,24.855320 226.358292,23.269432 
	C242.218613,21.432049 258.400238,20.333710 274.296326,21.305050 
	C299.649200,22.854259 324.225647,28.859863 347.773102,38.895500 
	C368.829712,47.869568 388.493042,59.166420 406.032043,73.748238 
	C422.765503,87.660301 437.674896,103.381844 450.230774,121.389679 
	C464.717712,142.167007 476.020599,164.402100 483.064880,188.646072 
	C486.514740,200.519226 489.449432,212.735123 490.744049,224.993729 
	C492.456940,241.212296 493.667877,257.711029 492.618591,273.929199 
	C491.602448,289.635620 488.294952,305.349182 484.483246,320.684113 
	C478.311676,345.512939 466.771362,368.173065 452.765320,389.462677 
	C441.678314,406.315308 427.944611,421.105042 412.887848,434.397156 
	C391.331879,453.426727 367.223450,468.742859 339.785553,477.877380 
	C324.284424,483.037903 308.501190,488.228241 292.431915,490.567871 
	C275.040771,493.099915 257.090118,493.691345 239.525162,492.676819 
	C213.844223,491.193542 188.920349,485.025146 165.180634,474.655975 
	C143.152405,465.034393 122.727661,452.922760 104.524742,437.095306 
	C83.516609,418.828827 65.737167,398.079681 51.820759,373.794800 
	C39.214722,351.796570 30.553476,328.442444 25.154053,303.888672 
	C20.496626,282.709167 19.671591,261.000031 21.216938,239.475220 
	C23.059830,213.806015 28.994202,188.881958 39.367073,165.141144 
	C48.992691,143.110641 60.789352,122.406128 77.048103,104.590981 
	C85.936516,94.851723 95.643356,85.859390 105.233559,76.269234 
M204.002197,456.186707 
	C204.491547,459.738190 204.980881,463.289642 205.484344,466.943573 
	C221.648621,470.756256 238.048416,473.556976 254.817398,472.946411 
	C265.160492,472.569824 275.593903,472.382141 285.788971,470.819366 
	C298.174377,468.920837 310.364532,465.720520 322.599457,462.910583 
	C323.869659,462.618835 325.657074,461.298431 325.854889,460.210022 
	C326.553772,456.365143 326.738708,452.418182 326.986115,448.501556 
	C327.691650,437.332458 328.388489,426.162201 328.983612,414.986847 
	C329.711517,401.318481 330.398712,387.647247 330.978516,373.971924 
	C331.420074,363.557404 331.638062,353.133575 332.037537,342.717010 
	C332.085846,341.457458 332.982422,340.195709 332.903198,338.972748 
	C332.694000,335.743896 334.811768,331.586945 329.098816,330.487335 
	C319.532623,328.646088 311.324585,323.577393 304.160522,317.397552 
	C297.219788,311.410370 289.790527,305.236267 288.557587,295.074799 
	C287.927612,289.882751 287.083435,284.663910 287.092010,279.458435 
	C287.108307,269.538818 287.546234,259.614136 288.032623,249.702545 
	C288.556580,239.024887 289.053345,228.332611 290.074463,217.695892 
	C291.461334,203.249374 293.416229,188.858322 294.972504,174.426788 
	C296.112183,163.858307 296.825317,153.242371 298.050049,142.684891 
	C299.483673,130.326202 299.635040,130.342789 311.235657,131.074921 
	C311.362854,131.082947 311.478241,131.278122 311.998749,131.742325 
	C311.998749,179.458496 311.998749,227.533203 311.998749,275.797180 
	C317.136871,275.797180 321.875061,275.797180 327.013184,275.797180 
	C327.013184,227.522751 327.013184,179.449097 327.013184,131.209534 
	C331.485901,131.209534 335.557190,131.209534 340.027283,131.209534 
	C340.027283,179.490921 340.027283,227.564804 340.027283,275.782654 
	C344.834381,275.782654 349.239502,275.782654 354.042847,275.782654 
	C354.042847,227.493698 354.042847,179.420120 354.042847,131.225464 
	C359.184052,131.225464 363.922516,131.225464 369.057983,131.225464 
	C369.057983,179.522690 369.057983,227.596313 369.057983,275.767090 
	C373.866821,275.767090 378.272278,275.767090 383.068115,275.767090 
	C383.068115,227.456390 383.068115,179.376846 383.068115,131.000351 
	C385.424255,131.000351 387.493896,130.620773 389.319977,131.124374 
	C390.699646,131.504883 392.673615,132.889893 392.831604,134.040802 
	C394.096344,143.254059 395.053253,152.511887 395.980835,161.768448 
	C396.748230,169.426361 397.289703,177.106735 398.033966,184.767181 
	C399.313904,197.941238 400.720612,211.103058 401.976318,224.279327 
	C402.459625,229.350479 402.612946,234.452179 403.024872,239.531174 
	C404.476837,257.435486 406.205048,275.347931 403.901733,293.289246 
	C403.441223,296.876129 402.618622,300.928833 400.544891,303.709045 
	C390.695160,316.914490 378.177277,326.618622 361.990387,331.111908 
	C360.769226,331.450897 359.171051,333.356476 359.150360,334.557953 
	C359.082977,338.469238 359.756866,342.386536 359.983246,346.310883 
	C360.694885,358.646515 361.397247,370.983337 361.982422,383.325439 
	C362.717377,398.827118 363.295410,414.336243 364.022736,429.838287 
	C364.242310,434.518890 364.733002,439.186737 365.114655,444.053864 
	C447.198120,397.129059 493.806488,298.787689 464.682800,195.715714 
	C450.456055,145.365662 420.137665,105.501671 376.720612,76.537697 
	C330.651123,45.804256 279.406525,35.439056 224.680573,43.070541 
	C178.172394,49.556065 138.191193,70.208588 104.976151,102.852509 
	C66.888351,140.285416 45.401119,186.417175 41.165009,239.674835 
	C33.925838,330.687866 84.730400,415.913940 164.491898,451.778961 
	C165.327698,438.190125 166.288330,424.601776 166.960297,410.999207 
	C167.490997,400.256531 167.621216,389.494629 168.016769,378.744507 
	C168.265335,371.988831 168.612595,365.235260 169.026642,358.487518 
	C169.802795,345.838226 170.659561,333.193878 171.459610,320.903900 
	C170.529663,320.356903 170.292938,320.134430 170.018433,320.067963 
	C147.882095,314.709442 132.054932,301.012756 122.240448,281.133087 
	C112.228027,260.852448 108.325882,239.028778 109.847404,216.190109 
	C110.703331,203.342316 114.169823,191.409927 119.592300,180.015747 
	C125.950943,166.654449 134.746765,154.961548 146.634552,145.958725 
	C159.235535,136.415802 172.881882,130.202072 189.441345,131.881973 
	C206.436066,133.606018 219.563797,142.474747 231.013596,153.843643 
	C239.816818,162.584671 246.488846,173.150635 251.460129,184.767563 
	C256.820160,197.292984 259.631897,210.363083 259.479156,223.763367 
	C259.277435,241.463760 256.443390,258.806946 249.097824,275.261841 
	C242.872543,289.207123 234.812149,301.662109 221.750046,309.857727 
	C215.036362,314.070099 207.283630,316.616089 200.051193,320.022949 
	C198.939163,320.546814 197.230606,321.699707 197.272476,322.482849 
	C197.664673,329.815613 198.533234,337.122009 198.965408,344.453644 
	C199.751251,357.784912 200.320282,371.128784 201.003662,384.466217 
	C201.652969,397.138702 202.425583,409.805603 202.971039,422.482422 
	C203.440598,433.395630 203.666489,444.319336 204.002197,456.186707 
M137.999985,222.607010 
	C139.338501,214.148743 140.296890,205.602692 142.218628,197.279083 
	C142.905014,194.306107 142.943680,192.081207 140.368393,191.354813 
	C139.055252,190.984421 136.361786,192.810440 135.393753,194.340530 
	C127.660080,206.564514 124.071922,220.121796 122.973328,234.461853 
	C121.963951,247.637497 125.422638,259.649506 130.717758,271.636078 
	C136.902496,285.636505 146.403488,296.000885 159.853180,302.889313 
	C161.098938,303.527313 163.008987,302.868256 164.610596,302.811432 
	C164.242447,301.200806 164.276169,299.333679 163.439148,298.022339 
	C158.942612,290.977692 153.146484,284.550934 149.811188,277.019745 
	C142.326035,260.118073 135.763519,242.748413 137.999985,222.607010 
z"/>
<path fill="#000000" opacity="1.000000" stroke="none" 
	d="
M204.001160,455.712555 
	C203.666489,444.319336 203.440598,433.395630 202.971039,422.482422 
	C202.425583,409.805603 201.652969,397.138702 201.003662,384.466217 
	C200.320282,371.128784 199.751251,357.784912 198.965408,344.453644 
	C198.533234,337.122009 197.664673,329.815613 197.272476,322.482849 
	C197.230606,321.699707 198.939163,320.546814 200.051193,320.022949 
	C207.283630,316.616089 215.036362,314.070099 221.750046,309.857727 
	C234.812149,301.662109 242.872543,289.207123 249.097824,275.261841 
	C256.443390,258.806946 259.277435,241.463760 259.479156,223.763367 
	C259.631897,210.363083 256.820160,197.292984 251.460129,184.767563 
	C246.488846,173.150635 239.816818,162.584671 231.013596,153.843643 
	C219.563797,142.474747 206.436066,133.606018 189.441345,131.881973 
	C172.881882,130.202072 159.235535,136.415802 146.634552,145.958725 
	C134.746765,154.961548 125.950943,166.654449 119.592300,180.015747 
	C114.169823,191.409927 110.703331,203.342316 109.847404,216.190109 
	C108.325882,239.028778 112.228027,260.852448 122.240448,281.133087 
	C132.054932,301.012756 147.882095,314.709442 170.018433,320.067963 
	C170.292938,320.134430 170.529663,320.356903 171.459610,320.903900 
	C170.659561,333.193878 169.802795,345.838226 169.026642,358.487518 
	C168.612595,365.235260 168.265335,371.988831 168.016769,378.744507 
	C167.621216,389.494629 167.490997,400.256531 166.960297,410.999207 
	C166.288330,424.601776 165.327698,438.190125 164.491898,451.778961 
	C84.730400,415.913940 33.925838,330.687866 41.165009,239.674835 
	C45.401119,186.417175 66.888351,140.285416 104.976151,102.852509 
	C138.191193,70.208588 178.172394,49.556065 224.680573,43.070541 
	C279.406525,35.439056 330.651123,45.804256 376.720612,76.537697 
	C420.137665,105.501671 450.456055,145.365662 464.682800,195.715714 
	C493.806488,298.787689 447.198120,397.129059 365.114655,444.053864 
	C364.733002,439.186737 364.242310,434.518890 364.022736,429.838287 
	C363.295410,414.336243 362.717377,398.827118 361.982422,383.325439 
	C361.397247,370.983337 360.694885,358.646515 359.983246,346.310883 
	C359.756866,342.386536 359.082977,338.469238 359.150360,334.557953 
	C359.171051,333.356476 360.769226,331.450897 361.990387,331.111908 
	C378.177277,326.618622 390.695160,316.914490 400.544891,303.709045 
	C402.618622,300.928833 403.441223,296.876129 403.901733,293.289246 
	C406.205048,275.347931 404.476837,257.435486 403.024872,239.531174 
	C402.612946,234.452179 402.459625,229.350479 401.976318,224.279327 
	C400.720612,211.103058 399.313904,197.941238 398.033966,184.767181 
	C397.289703,177.106735 396.748230,169.426361 395.980835,161.768448 
	C395.053253,152.511887 394.096344,143.254059 392.831604,134.040802 
	C392.673615,132.889893 390.699646,131.504883 389.319977,131.124374 
	C387.493896,130.620773 385.424255,131.000351 383.068115,131.000351 
	C383.068115,179.376846 383.068115,227.456390 383.068115,275.767090 
	C378.272278,275.767090 373.866821,275.767090 369.057983,275.767090 
	C369.057983,227.596313 369.057983,179.522690 369.057983,131.225464 
	C363.922516,131.225464 359.184052,131.225464 354.042847,131.225464 
	C354.042847,179.420120 354.042847,227.493698 354.042847,275.782654 
	C349.239502,275.782654 344.834381,275.782654 340.027283,275.782654 
	C340.027283,227.564804 340.027283,179.490921 340.027283,131.209534 
	C335.557190,131.209534 331.485901,131.209534 327.013184,131.209534 
	C327.013184,179.449097 327.013184,227.522751 327.013184,275.797180 
	C321.875061,275.797180 317.136871,275.797180 311.998749,275.797180 
	C311.998749,227.533203 311.998749,179.458496 311.998749,131.742325 
	C311.478241,131.278122 311.362854,131.082947 311.235657,131.074921 
	C299.635040,130.342789 299.483673,130.326202 298.050049,142.684891 
	C296.825317,153.242371 296.112183,163.858307 294.972504,174.426788 
	C293.416229,188.858322 291.461334,203.249374 290.074463,217.695892 
	C289.053345,228.332611 288.556580,239.024887 288.032623,249.702545 
	C287.546234,259.614136 287.108307,269.538818 287.092010,279.458435 
	C287.083435,284.663910 287.927612,289.882751 288.557587,295.074799 
	C289.790527,305.236267 297.219788,311.410370 304.160522,317.397552 
	C311.324585,323.577393 319.532623,328.646088 329.098816,330.487335 
	C334.811768,331.586945 332.694000,335.743896 332.903198,338.972748 
	C332.982422,340.195709 332.085846,341.457458 332.037537,342.717010 
	C331.638062,353.133575 331.420074,363.557404 330.978516,373.971924 
	C330.398712,387.647247 329.711517,401.318481 328.983612,414.986847 
	C328.388489,426.162201 327.691650,437.332458 326.986115,448.501556 
	C326.738708,452.418182 326.553772,456.365143 325.854889,460.210022 
	C325.657074,461.298431 323.869659,462.618835 322.599457,462.910583 
	C310.364532,465.720520 298.174377,468.920837 285.788971,470.819366 
	C275.593903,472.382141 265.160492,472.569824 254.817398,472.946411 
	C238.048416,473.556976 221.648621,470.756256 205.484344,466.943573 
	C204.980881,463.289642 204.491547,459.738190 204.001160,455.712555 
z"/>
<path fill="#000000" opacity="1.000000" stroke="none" 
	d="
M138.000000,223.094910 
	C135.763519,242.748413 142.326035,260.118073 149.811188,277.019745 
	C153.146484,284.550934 158.942612,290.977692 163.439148,298.022339 
	C164.276169,299.333679 164.242447,301.200806 164.610596,302.811462 
	C163.008987,302.868256 161.098938,303.527313 159.853180,302.889313 
	C146.403488,296.000885 136.902496,285.636505 130.717758,271.636078 
	C125.422638,259.649506 121.963951,247.637497 122.973328,234.461853 
	C124.071922,220.121796 127.660080,206.564514 135.393753,194.340530 
	C136.361786,192.810440 139.055252,190.984421 140.368393,191.354813 
	C142.943680,192.081207 142.905014,194.306107 142.218628,197.279083 
	C140.296890,205.602692 139.338501,214.148743 138.000000,223.094910 
z"/>
</svg>